# xmcd
#
# Track frame offsets:
#	150
#	11677
#	25365
#	39870
#	51545
#	63810
#	78295
#	87992
#	99577
#	114440
#	130807
#	148312
#	164355
#	178720
#	195342
#
# Disc length: 2814
#
# Revision: 1
# Processed by: cddbd v1.5.1PL0 Copyright (c) Steve Scherf et al.
# Submitted via: dBpowerAMP V4.0
# Normalized: r0:TDELIM( - )
#
DISCID=c40afc0f
DTITLE=Various Artist - Love songs
DYEAR=1996
DGENRE=Country
TTITLE0=Crystal Gayle - Hello I love you
TTITLE1=Glen Campbell - Honey come back
TTITLE2=Slim Whitman - My elusive dreams
TTITLE3=Billie Jo Spears - Love letters in the sand
TTITLE4=Willie Nelson with Shirley Collie - Willingly
TTITLE5=Tanya Tucker - Just another love
TTITLE6=Jean Shepard - Another lonely night
TTITLE7=Wanda Jackson - Cold, cold heart
TTITLE8=Olivia Newton John - On the banks of the Ohio
TTITLE9=Larry Gatlin and The Gatlin brothers - Country girl heart
TTITLE10=Crystal Gayle - Someday soon
TTITLE11=Suzy Boguss - My side of the story
TTITLE12=Dr. Hook - If not you
TTITLE13=Slim Whitman - Let me call you sweetheart
TTITLE14=Juice Newton - Lay back in the arms of someone
EXTD=Love songs
EXTT0=
EXTT1=
EXTT2=
EXTT3=
EXTT4=
EXTT5=
EXTT6=
EXTT7=
EXTT8=
EXTT9=
EXTT10=
EXTT11=
EXTT12=
EXTT13=
EXTT14=
PLAYORDER=
